<?xml version="1.0" encoding="utf-8"?>
<!-- Generator: Adobe Illustrator 27.8.1, SVG Export Plug-In . SVG Version: 6.00 Build 0)  -->
<svg version="1.1" id="Layer_1" xmlns="http://www.w3.org/2000/svg" xmlns:xlink="http://www.w3.org/1999/xlink" x="0px" y="0px"
	 viewBox="0 0 609 142.7" style="enable-background:new 0 0 609 142.7;" xml:space="preserve">
<style type="text/css">
	.st0{fill:#F1F0ED;}
</style>
<g id="Elementer">
	<path class="st0" d="M506.4,27.5c6.3,0,11.1-4.8,11.1-11.1s-4.8-11.1-11.1-11.1s-11.1,4.8-11.1,11.1l0,0
		C495.3,22.4,500.4,27.5,506.4,27.5"/>
	<path class="st0" d="M100.8,40.1H86.4c-4.5,0-5.1,0.6-10.2,5.7L30,92.3V19.4c0.3-1.8-1.2-3.6-3-3.9c-0.3,0-0.6,0-0.9,0H3.9
		c-1.8-0.3-3.6,1.2-3.9,3c0,0.3,0,0.6,0,0.9v9.9c-0.3,1.8,1.2,3.6,3,3.9c0.3,0,0.6,0,0.9,0H12v90H3.9c-1.8-0.3-3.6,1.2-3.9,3
		c0,0.3,0,0.6,0,0.9v9.9c-0.3,1.8,1.2,3.6,3,3.9c0.3,0,0.6,0,0.9,0h33.6c1.8,0.3,3.6-0.9,3.9-2.7c0-0.3,0-0.6,0-0.9v-10.2
		c0.3-1.8-1.2-3.6-3-3.9c-0.3,0-0.6,0-0.9,0h-7.8v-7.5L47.1,98l30.6,37.2c3.9,5.1,3.9,5.1,9.9,5.1h13.2c1.8,0.3,3.6-1.2,3.6-3
		c0-0.3,0-0.6,0-0.9v-9.3c0.3-1.8-1.2-3.6-3-3.9c-0.3,0-0.6,0-0.9,0H89.7L59.4,85.7L87,57.5h13.5c1.8,0.3,3.3-1.2,3.6-3
		c0-0.3,0-0.6,0-0.6V43.7c0.3-1.8-0.9-3.6-3-3.9C101.4,40.1,101.1,40.1,100.8,40.1"/>
	<path class="st0" d="M219.6,123.2h-8.1V80.3c0-25.5-16.2-42-41.1-42c-10.5-0.3-20.7,3.3-28.5,10.5V44c0.3-1.8-1.2-3.6-3-3.6
		c-0.3,0-0.6,0-0.9,0h-21.6c-1.8-0.3-3.6,0.9-3.9,3c0,0.3,0,0.6,0,0.9v9.9c-0.3,1.8,1.2,3.6,3,3.9c0.3,0,0.6,0,0.9,0h8.1v65.4h-8.1
		c-1.8-0.3-3.6,1.2-3.9,3c0,0.3,0,0.6,0,0.9v9.9c0,1.8,1.2,3.6,3.3,3.6c0.3,0,0.3,0,0.6,0H150c1.8,0.3,3.6-1.2,3.9-3
		c0-0.3,0-0.6,0-0.6v-10.2c0.3-1.8-1.2-3.6-3-3.9c-0.3,0-0.6,0-0.9,0h-7.8V83.3c0-16.5,11.4-28.2,27.3-28.2s24.6,9.9,24.6,27v41.1
		H186c-1.8-0.3-3.6,1.2-3.6,3.3c0,0.3,0,0.6,0,0.9v9.9c-0.3,1.8,1.2,3.6,3,3.9c0.3,0,0.6,0,0.9,0h33.6c1.8,0.3,3.6-1.2,3.9-3
		c0-0.3,0-0.6,0-0.9v-10.2c0.3-1.8-1.2-3.6-3-3.9C220.2,123.2,219.9,123.2,219.6,123.2"/>
	<path class="st0" d="M274.5,38.3c-28.5,0-51.3,23.1-51.3,51.3c0,0.3,0,0.6,0,1.2c-0.6,28.2,21.9,51.3,50.1,51.9c0.3,0,0.6,0,0.9,0
		c28.5,0,51.6-23.1,51.6-51.3c0-0.3,0-0.6,0-0.9c0.6-28.2-21.9-51.3-50.1-51.9C275.1,38.3,274.8,38.3,274.5,38.3 M274.5,125.6
		c-18.6,0-33-15.6-33-35.4s14.1-34.8,32.7-34.8s33.3,15.6,33.3,35.4S293.1,125.6,274.5,125.6"/>
	<path class="st0" d="M474.9,40.1h-34.5c-1.8-0.3-3.6,0.9-3.9,3c0,0.3,0,0.6,0,0.9v9.9c-0.3,1.8,1.2,3.6,3,3.9c0.3,0,0.6,0,0.9,0
		h7.8l-16.5,53.1l-23.4-67.8c-0.6-1.8-2.4-3-4.2-3h-6.9c-1.8,0-3.6,1.2-4.2,3l-23.1,67.8l-16.5-53.4h7.8c1.8,0.3,3.6-1.2,3.9-3
		c0-0.3,0-0.6,0-0.9v-9.9c0.3-1.8-1.2-3.6-3-3.6c-0.3,0-0.6,0-0.9,0h-34.8c-1.8-0.3-3.6,1.2-3.9,3c0,0.3,0,0.6,0,0.6v9.9
		c-0.3,1.8,1.2,3.6,3,3.9c0.3,0,0.6,0,0.6,0h8.1l27.3,80.4c0.6,1.8,2.4,3,4.2,3h7.5c1.8,0,3.6-1.2,4.2-3l22.8-66l22.8,66
		c0.6,1.8,2.4,3,4.2,3h7.5c1.8,0,3.6-1.2,4.2-3l27.6-80.4h8.1c1.8,0.3,3.6-1.2,3.9-3c0-0.3,0-0.6,0-0.6V44c0.3-1.8-1.2-3.6-3-3.6
		C475.5,40.1,475.2,40.1,474.9,40.1"/>
	<path class="st0" d="M523.8,123.2h-8.1V44c0.3-1.8-1.2-3.6-3-3.6c-0.3,0-0.6,0-0.6,0h-22.2c-1.8-0.3-3.6,1.2-3.6,3
		c0,0.3,0,0.6,0,0.9v9.9c-0.3,1.8,1.2,3.6,3,3.9c0.3,0,0.6,0,0.9,0h8.1v65.4h-14.7c-1.8-0.3-3.6,1.2-3.9,3c0,0.3,0,0.6,0,0.9v9.9
		c-0.3,1.8,1.2,3.6,3,3.9c0.3,0,0.6,0,0.9,0h40.2c1.8,0.3,3.6-1.2,3.9-3c0-0.3,0-0.6,0-0.9v-10.2c0.3-1.8-1.2-3.6-3-3.9
		C524.4,123.2,524.1,123.2,523.8,123.2"/>
	<path class="st0" d="M601.8,89.6h-9.6c-1.8-0.3-3.6,1.2-3.9,3c0,0.3,0,0.6,0,0.9v18.6c0.3,6.9-5.1,12.9-12,13.2
		c-9.6,0-13.8-3.9-13.8-13.5v-54h23.4c1.8,0.3,3.6-1.2,3.9-3c0-0.3,0-0.6,0-0.9V44c0.3-1.8-1.2-3.6-3-3.6c-0.3,0-0.6,0-0.6,0h-23.4
		V19.7c0.3-1.8-0.9-3.6-3-3.9c-0.3,0-0.6,0-0.9,0h-10.2c-1.8-0.3-3.6,1.2-3.9,3c0,0.3,0,0.6,0,0.9v21H534c-1.8-0.3-3.6,1.2-3.6,3
		c0,0.3,0,0.3,0,0.6v9.9c-0.3,1.8,1.2,3.6,3,3.9c0.3,0,0.6,0,0.9,0h10.8V113c0,18,11.7,29.7,30,29.7c18.9,0,30.9-11.4,30.9-28.8
		V93.8c0.3-1.8-1.2-3.6-3-3.9C602.7,89.6,602.4,89.6,601.8,89.6"/>
</g>
</svg>
